<?xml version="1.0" standalone="no"?>
<!DOCTYPE svg PUBLIC "-//W3C//DTD SVG 20010904//EN"
 "http://www.w3.org/TR/2001/REC-SVG-20010904/DTD/svg10.dtd">
<svg version="1.0" xmlns="http://www.w3.org/2000/svg"
 width="588.000000pt" height="588.000000pt" viewBox="0 0 588.000000 588.000000"
 preserveAspectRatio="xMidYMid meet">
<metadata>
Created by potrace 1.11, written by Peter Selinger 2001-2013
</metadata>
<g transform="translate(0.000000,588.000000) scale(0.100000,-0.100000)"
fill="#000000" stroke="none">
<path d="M81 5532 c-13 -2 -29 -9 -35 -15 -8 -9 -11 -648 -11 -2240 1 -1995 3
-2229 16 -2243 14 -13 58 -15 316 -15 l300 0 -1 -328 c0 -261 2 -332 13 -345
12 -15 229 -16 2576 -16 2222 0 2564 2 2575 14 10 13 17 180 10 221 -2 6 -1
15 0 20 5 23 2 104 -5 116 -5 7 -4 10 2 6 6 -4 7 10 3 38 -4 25 -4 45 -1 45 7
0 6 164 -2 177 -2 4 -1 17 3 28 4 11 4 32 -1 47 -4 14 -4 29 -1 33 8 7 5 173
-3 186 -4 5 -3 9 2 9 8 0 9 162 0 177 -2 4 -1 17 3 28 4 11 4 32 -1 47 -4 14
-4 29 -1 33 8 7 5 173 -3 186 -4 5 -3 9 2 9 4 0 8 36 8 80 0 44 -4 80 -8 80
-5 0 -6 4 -3 9 9 14 11 125 2 139 -4 6 -4 12 1 12 8 0 9 162 0 177 -2 4 -1 17
3 28 4 11 4 32 -1 47 -4 14 -4 29 -1 33 8 7 5 173 -3 186 -4 5 -3 9 2 9 8 0 9
162 0 177 -2 4 -1 17 3 28 4 11 4 32 -1 47 -4 14 -4 29 -1 33 8 7 5 173 -3
186 -4 5 -3 9 2 9 4 0 8 36 8 80 0 44 -4 80 -8 80 -5 0 -6 4 -3 9 9 14 11 125
2 139 -4 6 -4 12 1 12 8 0 9 162 0 177 -2 4 -1 17 3 28 4 11 4 32 -1 47 -4 14
-4 29 -1 33 8 7 5 173 -3 186 -4 5 -3 9 2 9 8 0 9 162 0 177 -2 4 -1 17 3 28
4 11 4 32 -1 47 -4 14 -4 29 -1 33 8 7 5 173 -3 186 -4 5 -3 9 2 9 4 0 8 36 8
80 0 44 -4 80 -8 80 -5 0 -6 4 -3 9 9 14 11 125 2 139 -4 6 -4 12 1 12 12 0 7
164 -6 189 -7 11 -19 21 -29 22 -9 0 -145 1 -302 2 l-285 2 -2 285 c-1 157 -2
309 -3 337 0 49 -2 53 -27 59 -27 7 -5055 12 -5102 6z"/>
</g>
</svg>
